<?xml version="1.0" encoding="utf-8"?>
<!-- Generator: Adobe Illustrator 24.1.2, SVG Export Plug-In . SVG Version: 6.00 Build 0)  -->
<svg version="1.1" id="Layer_1" xmlns="http://www.w3.org/2000/svg" xmlns:xlink="http://www.w3.org/1999/xlink" x="0px" y="0px"
	 viewBox="0 0 404.12 423.84" style="enable-background:new 0 0 404.12 423.84;" xml:space="preserve">
<style type="text/css">
	.st0{opacity:0.9;fill:#31478F;}
	.st1{fill:#FFFFFF;stroke:#000000;stroke-miterlimit:10;}
	.st2{fill:#58595B;}
	.st3{fill:#414042;}
	.st4{fill:#F1F2F2;}
	.st5{fill:none;stroke:#000000;stroke-miterlimit:10;}
	.st6{stroke:#000000;stroke-miterlimit:10;}
	.st7{fill:#FFFFFF;}
	.st8{fill:#F8C1D9;stroke:#000000;stroke-linecap:round;stroke-linejoin:round;stroke-miterlimit:10;}
	.st9{fill:none;stroke:#000000;stroke-linecap:round;stroke-linejoin:round;stroke-miterlimit:10;}
	.st10{fill:none;stroke:#000000;stroke-linecap:round;stroke-miterlimit:10;}
	.st11{opacity:0.9;}
	.st12{fill:#31478F;}
</style>
<ellipse class="st0" cx="202.06" cy="159.92" rx="202.06" ry="159.27"/>
<g>
	<g>
		<g>
			<path class="st1" d="M359.07,186.62"/>
			<path class="st1" d="M352.18,172.16c-0.14,2.39-1.08,4.49-2.44,5.86c0.46,1.29,0.62,2.79,0.42,4.35
				c-0.51,4.09-4.14,7.08-7.3,7.07c-0.43,2.63-1.85,4.77-3.69,5.79c-0.39,3.59-2.88,6.13-5.64,6.6c-1.21,1.69-2.94,2.71-4.81,2.6
				c-0.72-0.04-1.41-0.25-2.03-0.61c-0.87,1.18-2.12,2.21-3.66,2.93c-2.18,1.03-4.49,1.2-6.35,0.65c-1.41,0.69-3.18,0.73-4.93,0.16
				c-0.43,1.03-1.14,1.88-2.1,2.42c-0.52,0.3-1.08,0.48-1.66,0.56c0.16,2.44-0.75,4.64-2.62,5.69c-0.47,0.27-0.97,0.44-1.48,0.53
				c0.08,2.33-0.84,4.41-2.63,5.42c-0.41,0.23-0.85,0.4-1.3,0.49c-0.28,1.71-1.15,3.15-2.54,3.94c-0.54,0.3-1.12,0.49-1.73,0.56
				c0,1-0.25,1.95-0.8,2.77c-0.78,1.17-2.02,1.9-3.47,2.16c-1.02,3.46-4.58,5.92-7.53,6.03c0.13,2.04-0.7,4.36-2.41,6.27
				c-1.37,1.53-3.07,2.53-4.74,2.93c-0.43,2.64-2.01,4.71-4.24,5.22c-0.55,0.13-1.1,0.15-1.65,0.08c-0.66,2.05-2.07,3.58-3.94,4
				c-0.44,0.1-0.89,0.14-1.33,0.1c-0.66,2.02-2.06,3.53-3.92,3.96c-0.72,0.16-1.3,0.15-1.78,0c-0.27,0.55-0.64,1.03-1.11,1.44
				c-2.04,1.78-5.3,1.53-7.99-0.4c0.14,2.92-2.47,5.87-6.28,6.86c-1.45,0.38-2.63,0.34-3.6-0.01c-0.07,0.11-0.16,0.22-0.25,0.33
				c-2.38,2.86-5.87,4.01-8.44,2.97c-1.74,1.56-3.84,2.34-5.72,2.22c-1.39,0.66-3.09,0.98-4.89,0.82c-0.8-0.07-1.56-0.23-2.27-0.45
				c-2.32,1.71-5.08,2.15-7.11,1.05c-1.29,1.29-3.29,2.01-5.81,1.79c-3.19-0.28-2.98-0.25-3.29-1.19c-2.03,0.85-4.15,0.88-5.77,0.04
				c-0.65,0.19-1.34,0.33-2.06,0.44c-2.37,0.35-4.56,0.19-6.1-0.35c-0.98-0.06-2.21-0.53-3.45-1.32c-1.43,1.39-4.25,1.11-6.62-0.65
				c-1.67,1.15-4.47,0.71-6.71-1.16c-0.23-0.19-0.44-0.39-0.63-0.6c-1.85,0.56-3.72,0.07-5.27-1.21c-0.5-0.41-0.89-0.92-1.17-1.48
				c-1.84,0.92-3.69,0.97-5.19-0.28c-0.55-0.46-0.9-0.85-1.09-1.22c-0.73,0.17-1.49,0.19-2.23,0.01c-1.39-0.33-2.33-1.25-2.87-2.53
				c-3.18,0.12-5.97-1.29-6.99-3.54c-0.13-0.01-0.27-0.03-0.4-0.06c-1.07-0.21-1.99-0.79-2.72-1.61c-0.62-0.06-1.24-0.18-1.87-0.37
				c-3.61-1.06-6.05-3.86-6.07-6.65c-3.81,0.33-7.16-1.55-7.75-4.51c-0.06-0.31-0.09-0.63-0.09-0.94c-2.18-0.54-3.89-1.89-4.49-3.73
				c-1.44-0.12-2.71-0.71-3.59-1.77c-0.67-0.81-0.86-1.53-0.68-2.22c-0.22-0.09-0.45-0.19-0.69-0.32c-2.12-1.13-2.81-2.5-2.74-3.99
				c-1.05-0.26-1.96-0.8-2.65-1.62c-0.72-0.87-1.08-1.95-1.1-3.09c-1.04-0.22-1.96-0.72-2.66-1.5c-1.75-1.96-2.16-4.85-1.28-7.61
				c-1.95,0.27-3.77-0.25-4.96-1.58c-1.44-1.61-1.59-4.02-0.63-6.31c-1.47-1.2-2.61-3.04-3.29-4.72c-2.24-1.17-3.9-3.56-4.46-5.72
				c-1.3-0.54-2.36-1.37-3.04-2.39c-1.71,0.35-3.37,0.12-4.64-0.73c-1.53,0.76-3.49,0.76-5.78-0.32c-1.7-0.8-2.71-1.94-3.2-3.22
				c-0.74,0.53-1.58,0.85-2.49,0.9c-1.68,0.1-3.25-0.71-4.42-2.1c-2.9-0.14-5.6-3.45-6.21-7.22c-1.71-1.02-3.03-3.03-3.48-5.49
				c-3.1,0.05-5.93-3.02-6.45-7.13c-0.17-1.36-0.07-2.68,0.27-3.85c-1.75-1.29-3.01-3.68-3.17-6.48c-0.06-1.08,0.04-2.07,0.28-2.94
				c-2.02-2.12-1.97-6.03,0.26-9.27c-0.67-1.06-1.06-2.39-1.06-3.95c0-2.31,0.76-4.39,1.96-5.83c0.93-1.13,2.15-1.88,3.49-2.04
				c-0.75-1.04-1.1-2.4-1.04-3.85c0.06-1.63,0.64-3.37,1.74-4.96c0.84-1.21,1.87-2.16,2.98-2.82c-0.42-3.66,1.22-6.94,4.05-7.7
				c0.78-0.21,1.61-0.39,2.44-0.49c-0.05-0.17-0.09-0.35-0.13-0.53c-0.72-3.6,0.55-7.01,2.92-8.38h0.01
				c0.61-1.85,2.14-3.57,4.2-4.49c0.52-1.78,1.66-3.18,3.26-3.75c1.61-0.58,3.62-1.25,5.39-1.2c-0.22-0.84-0.22-1.71,0.02-2.55
				c0.63-2.21,2.82-3.66,5.5-3.93c0.13-0.38,0.31-0.75,0.55-1.09c1.14-1.64,3.2-2.37,5.44-2.13c1.2-1.99,3.76-3.46,6.8-3.64
				c1.15-0.07,2.26,0.05,3.27,0.33c0.24-1.2,0.76-2.41,1.55-3.55c0.34-0.49,0.66-0.88,0.98-1.19c0.13-1.52,0.7-3.12,1.71-4.58
				c1.46-2.1,3.12-2.92,4.79-2.85c0.25-0.58,0.57-1.15,0.95-1.7c1.28-1.83,2.5-2.59,3.77-2.64c0.28-1.02,0.75-2.03,1.41-2.99
				c1.42-2.05,3.19-3.19,4.95-3.45c0.39-0.61,0.86-1.2,1.4-1.75c1.65-1.65,3.43-2.39,5.08-2.36c0.64-0.88,1.47-1.7,2.47-2.38
				c1.72-1.17,3.05-1.5,4.17-1.21c0.18-0.36,0.39-0.71,0.63-1.05c1.51-2.18,3.68-3.54,5.75-3.84c0.96-0.99,2.24-1.82,3.74-2.35
				c1.51-0.54,2.58-0.58,3.37-0.26c0.13-0.21,0.26-0.43,0.41-0.64c2.08-3,5.38-4.45,8.01-3.74c2.09-2.03,4.8-2.87,6.98-2.14
				c1.05-0.4,2.24-0.62,3.5-0.62s2.1,0.25,2.66,0.69c2.52-2.68,6.09-3.54,8.49-1.88c0.09,0.06,0.18,0.13,0.26,0.21
				c0.62-0.13,1.28-0.19,1.96-0.19c2.02,0,2.93,0.39,3.32,1.13c2.21-1.97,5.01-2.65,7.16-1.64c0.45-0.18,0.93-0.33,1.43-0.45
				c2.57-0.61,4.61-0.1,5.98,1.12c1.88-1.16,3.99-1.47,5.71-0.74c2.22-1.39,4.76-1.61,6.61-0.32c0.19,0.13,0.37,0.28,0.53,0.44
				c2.09-1.12,4.38-1.21,6.09-0.02c0.62,0.43,1.11,1,1.46,1.65c1.85-0.73,3.76-0.66,5.24,0.36c0.24,0.16,0.45,0.35,0.64,0.55
				c1.71-0.96,3.5-1.03,5.09,0.08c0.5,0.34,0.91,0.77,1.22,1.26c0.47-0.19,1.01-0.25,1.63-0.18c1.69,0.19,2.64,1.29,3.09,2.9
				c2.18-0.42,4.58-0.24,6.45,0.48c0.67-0.23,1.38-0.32,2.09-0.24c2.21,0.25,3.97,2.05,4.74,4.51c0.39,0.02,0.88,0.12,1.48,0.29
				c2.24,0.64,3.18,1.62,3.43,2.87c2.7-0.39,5.22,0.4,6.6,2.06c1.07-0.03,2.1,0.24,2.97,0.85c1.22,0.84,1.93,2.2,2.12,3.76
				c2.39,0.14,4.44,1.21,5.44,2.9c1.85,0.79,3.27,2.55,3.7,4.95c2.69-0.7,4.74-0.14,5.86,2.02c0.65-0.02,1.36,0.23,2.18,0.8
				c1.22,0.84,1.63,1.97,1.51,3.29c2.1,0.52,2.97,2.32,3.03,4.75c1.45-0.3,2.87-0.08,4.03,0.72c1.06,0.74,1.48,1.61,1.45,2.62
				c0.08,0.01,0.17,0.02,0.25,0.04c2.25,0.46,3.86,2.51,4.35,5.15c0.55,0.13,1.07,0.36,1.55,0.69c1.24,0.86,1.95,2.25,2.13,3.84
				c2.59,0.39,4.73,1.74,5.8,3.51c2.24-0.23,4.3,0.5,5.44,2.14c0.24,0.34,0.42,0.71,0.55,1.09c2.68,0.27,4.87,1.72,5.5,3.93
				c0.01,0.04,0.02,0.08,0.03,0.12c0.88-0.19,1.68,0.13,2.56,1.2c0.53,0.65,0.86,1.41,1,2.23c0.56-0.1,1.16-0.04,1.82,0.2
				c1.54,0.55,2.65,1.87,3.2,3.56c2.61,0.88,4.48,2.78,4.74,5.02c1.53,1.12,2.78,3.03,2.81,4.79c0.54,0.14,1.06,0.5,1.59,1.15
				c0.79,0.97,1.02,2.09,0.8,3.26c2.56,0.97,4.01,4.1,3.61,7.56c1.11,0.66,2.14,1.61,2.98,2.82c1.1,1.59,1.68,3.33,1.74,4.96
				c0.25,0.29,0.49,0.59,0.72,0.92c1.33,1.91,1.89,4.07,1.72,5.96c1.27,0.75,1.97,2.22,1.97,4.83c0,1.62-0.41,2.9-1.12,3.87
				c0.02,0.02,0.03,0.03,0.04,0.05c2.24,3.23,2.31,7.14,0.3,9.28C352.15,170.12,352.24,171.12,352.18,172.16z"/>
			<path class="st1" d="M377.23,162.18"/>
			<path class="st1" d="M351.92,169.19c-0.2,0.24-0.45,0.46-0.73,0.65"/>
			<path class="st1" d="M304.12,96.74c-0.33-0.06-0.66-0.1-1-0.12"/>
		</g>
	</g>
	<g>
		<g>
			<path class="st2" d="M218.84,189.43c-5,2.29-13.64,5.13-24,3.19c-4.26-0.79-7.85-2.21-10.75-3.72c0.12-0.22,0.25-0.45,0.39-0.67
				c1.57-2.39,3.94-3.41,6.49-4.5c3.96-1.71,7.57-2.03,9.89-2.05c1.62-0.27,6.66-0.87,11.63,2.1
				C213.11,184.12,216.78,186.16,218.84,189.43z"/>
			<path class="st3" d="M220.17,195.29c-0.74,4.43-2.59,7.63-5.25,10.49c-2.62,2.85-8.03,8.27-14.42,6.8
				c-9.26-2.14-14.84-7.49-16.69-13.94c-0.45-1.56-1.7-5.93,0.24-9.68c0.01-0.03,0.02-0.05,0.04-0.08c2.9,1.51,6.49,2.94,10.75,3.72
				c10.36,1.94,19-0.9,24-3.19c0.02,0.01,0.02,0.01,0.02,0.02C219.91,191.1,220.54,193.07,220.17,195.29z"/>
			<path class="st4" d="M218.26,189.79c-0.04,0.02-0.07,0.05-0.1,0.07c-3.65,2.35-11.56,7-21.61,5.28
				c-5.21-0.89-8.85-3.73-11.47-5.68c-0.11-0.08-0.23-0.17-0.34-0.24c0.12,0.06,0.25,0.12,0.37,0.17c2.75,1.34,6.17,2.6,10.21,3.29
				c9.85,1.71,18.06-0.81,22.82-2.84C218.18,189.83,218.22,189.81,218.26,189.79z"/>
		</g>
		<path class="st5" d="M184.09,188.89c0.12-0.22,0.25-0.45,0.39-0.67c1.57-2.39,3.94-3.41,6.49-4.5c3.96-1.71,7.57-2.03,9.89-2.05
			c1.62-0.27,6.66-0.87,11.63,2.1c0.61,0.36,4.28,2.4,6.35,5.67"/>
		<path class="st5" d="M218.84,189.43c0.02,0.01,0.02,0.01,0.02,0.02c1.05,1.65,1.68,3.62,1.31,5.85
			c-0.74,4.43-2.59,7.63-5.25,10.49c-2.62,2.85-8.03,8.27-14.42,6.8c-9.26-2.14-14.84-7.49-16.69-13.94
			c-0.45-1.56-1.7-5.93,0.24-9.68c0.01-0.03,0.02-0.05,0.04-0.08"/>
	</g>
	<g>
		<circle class="st6" cx="162.75" cy="152.28" r="10.37"/>
		<g>
			
				<ellipse transform="matrix(0.9904 -0.1383 0.1383 0.9904 -19.0466 23.4956)" class="st7" cx="159.49" cy="148.76" rx="2.61" ry="2.15"/>
			<circle class="st7" cx="166.45" cy="154.63" r="1.39"/>
		</g>
	</g>
	<g>
		<circle class="st6" cx="236.6" cy="151.17" r="10.37"/>
		<g>
			
				<ellipse transform="matrix(0.1187 -0.9929 0.9929 0.1187 64.3428 367.8555)" class="st7" cx="239.4" cy="147.68" rx="2.15" ry="2.61"/>
			<circle class="st7" cx="232.56" cy="153.68" r="1.39"/>
		</g>
	</g>
	<g>
		<path class="st8" d="M218.17,248.71c-2,6.09-13.29,8.78-21.5,6.87c-1.43-0.34-9.15-2.14-11.05-7.71
			c-0.67-1.95-0.23-4.04,0.69-8.13c1.77-7.89,4.05-9.77,3.47-13.93c-0.21-1.55-0.87-3.73-2.92-6.21c1.99-0.39,6.1-1.67,7.41-3.16
			c-0.85,2.3-2.13,5.54-3.1,7.06c-0.22,0.33,10.33-3.76,10.3-6.76c-0.03-3,0.27-2.02,0.27-2.02s-0.07,1.83,3.75,5.7
			c3,3.05,5.65,3.21,6.65,3.15c0.09-0.01,0.12-0.12,0.04-0.17c-0.51-0.26-1.44-1.21-2.27-4.4c-0.58-2.23-0.88-3.19-1.04-3.58
			c0.84,0.86,4.55,4.38,9.66,4.12c-3.26,3.02-5.07,5.72-5.4,11.39C212.64,239.42,219.98,243.19,218.17,248.71z"/>
		<path class="st9" d="M257.53,196.99c0,0,3.55,2.82,4.36,9.59c0.2,1.7-0.48,5.77-1.92,9.22c-1.2,2.88-6.78,5.22-8.54,5.9
			c-0.17,0.06-0.3-0.13-0.2-0.27c0.8-1.12,2.7-3.94,3.35-6.94c0.73-3.4-2-10.61-2.39-11.33"/>
		<path class="st9" d="M252.16,203.1c0,0,0,0.01,0.01,0.02c0,0.01,0.01,0.02,0.01,0.04c0.22,0.73,2.17,7.29,1.69,10.44
			c-0.49,3.24-6.51,8.27-6.81,8.52"/>
		<path class="st9" d="M247.06,222.13c0,0,0,0,0.01-0.01c0.03-0.06,0.21-0.34,0.53-1.37c0.51-1.69,0.64-2.35,0.64-2.41
			c0,0-0.68-4.37-2.91-9.67c-2.13-5.05-9.48-8.96-10.61-9.52"/>
		<path class="st9" d="M234.56,199.07c0,0,0.02,0.01,0.06,0.03c0.01,0.01,0.02,0.02,0.03,0.02c0.02,0.01,0.04,0.02,0.06,0.04
			c0.67,0.38,3.55,2.05,6.02,4.02c2.83,2.25,6.03,8.61,5.93,11.87c-0.09,2.87-2.98,7.95-3.68,9.12c-0.03,0.07-0.13,0.03-0.12-0.04
			c0.1-1.1,0.48-4.75,0.02-7.89c-0.6-4.14-7.64-8.66-8.15-8.95"/>
		<path class="st9" d="M234.71,207.28c0,0,0.01,0.01,0.02,0.01c0.3,0.22,3.42,2.46,5.37,5.49c1.76,2.7,0.86,6.82,0.56,7.96
			c-0.02,0.09-0.14,0.09-0.16,0c-0.32-1.19-1.56-5.48-2.92-5.92c-1.58-0.5-1.51-0.77-7.37,0.07c-5.27,0.75-8.97-3.62-9.66-4.5
			c-0.08-0.1-0.12-0.16-0.12-0.16s-0.2-0.82,0.12,0.16c0.13,0.4,0.35,1.09,0.7,2.26c1.21,4.05,11.24,3.46,11.24,3.46
			s-0.38,1.24-4.09,1.54c-3.71,0.3-6.58-0.39-10.72-2.7c-2.04-1.14-3.1-2.23-3.64-3.06c-0.56-0.84-0.58-1.39-0.58-1.39
			s-0.09-0.55,0.58,1.39c0.16,0.46,0.37,1.07,0.63,1.85c1.34,4.1,10.16,4.66,10.16,4.66s0.45,0.46-5.7,1.11
			c-0.21,0.02-0.21,0.02-0.41,0.03"/>
		<path class="st9" d="M208.7,215.24c0,0,0-0.25,0.17,0.19C208.76,215.31,208.7,215.24,208.7,215.24z"/>
		<path class="st9" d="M195.18,213.87c0,0,0.52,0.31-0.7,2.29c-0.06,0.09-0.13,0.19-0.22,0.28
			C194.81,214.97,195.18,213.87,195.18,213.87z"/>
		<path class="st9" d="M188.5,213.06c-0.32,0.75-2.85,6.63-2.64,6.66c0.16,0.02,0.52-0.03,1-0.11"/>
		<path class="st9" d="M188.54,212.98c0,0,0,0.01-0.01,0.02c0,0.01-0.01,0.03-0.03,0.06c-0.18,0.36-0.93,1.92-1.95,3.85
			c-1.36,2.59-9.61,0.46-9.47,0.27c0.24-0.31,5.12-5.27,5.42-5.58"/>
		<path class="st9" d="M182.52,211.59c-0.01,0-0.01,0.01-0.02,0.01c-1.39,0.85-8.38,2.8-8.38,2.8s-7.33,0.3-9.21,1.14
			c-1.89,0.83-2.1,6.38-2.1,6.38s-0.2-0.64-0.27-0.98c-0.28-1.3,0.04-2.54,0.04-2.54s0.45-4.31,1.62-6.81
			c0.35-0.74,0.87-1.38,1.41-1.91c0.94-0.93,1.98-1.54,2.48-1.79c0.01,0,0.01,0,0.01,0c0.05-0.04,0.1-0.06,0.14-0.08
			c0.04-0.02,0.07-0.03,0.1-0.04"/>
		<path class="st9" d="M168.38,207.75c0,0-0.01,0-0.02,0.01c0,0-0.01,0-0.01,0.01c-0.02,0-0.05,0.02-0.1,0.04
			c-0.04,0.02-0.09,0.04-0.14,0.08c0,0,0,0-0.01,0c-0.36,0.21-1.13,0.71-2.48,1.79c-0.49,0.38-1.05,0.86-1.71,1.43
			c-3.02,2.61-3.78,10.8-3.9,12.42c-0.01,0.06-0.09,0.07-0.11,0.01c-0.47-1.41-2.82-8.07-1.67-13.41c1.71-7.94,8.35-9.36,9.27-9.8"
			/>
		<path class="st9" d="M167.6,200.28c0,0-0.03,0.01-0.09,0.04c-0.37,0.12-1.91,0.71-4.59,2.06c-4.96,2.5-5.92,8.53-6.74,11.42
			c-0.85,3.01,0.3,8.33,0.3,8.33s-0.32-0.13-2.45-1.07c-3.45-1.51-3.75-16.26-3.75-16.26s-0.53,4.7-0.5,8.57
			c0.02,2.32,0.75,5.17,1.33,7.09c0.39,1.28,0.71,2.13,0.71,2.13s-9.46-6.56-10.48-11.25c-1.02-4.68,3.42-11.37,3.42-11.37"/>
		<path class="st10" d="M201.52,224.62c-1.11,3.11-2.36,7.87-2.21,13.72c0.08,3.46,0.64,6.44,1.26,8.79"/>
	</g>
</g>
<g class="st11">
	<g>
		<g>
			<path class="st12" d="M136.99,357.31c0.68-0.72,1.33-1.16,2.02-2.32c0.58-0.98,0.5-1.31,1.01-2.1c0.94-1.46,2.37-2.11,2.76-2.28
				c2.21-0.97,4.24-0.37,4.86-0.18c0.62,0.19,1.91,0.6,2.89,1.75c0.15,0.18,0.51,0.82,1.23,2.1c0.77,1.39,0.98,1.82,1.53,2.41
				c0.57,0.6,0.72,0.52,1.27,1.05c0.38,0.37,1.44,1.48,1.75,3.15c0.07,0.37,0.45,2.41-0.79,3.94c-1.68,2.08-5.08,1.62-5.65,1.53
				c-0.63-0.1-1.05-0.26-2.45-0.48c-1.08-0.17-1.73-0.27-2.5-0.26c-1.35,0.01-1.69,0.34-3.37,0.66c-1.89,0.36-2.83,0.54-3.81,0.22
				c-1.55-0.5-2.91-2.07-3.15-3.77C134.22,360.25,136.34,357.99,136.99,357.31z"/>
			
				<ellipse transform="matrix(0.9582 -0.286 0.286 0.9582 -94.8602 53.1066)" class="st12" cx="134.39" cy="351.33" rx="3.43" ry="4.68"/>
			
				<ellipse transform="matrix(0.9954 -0.0962 0.0962 0.9954 -32.4798 15.1671)" class="st12" cx="141.09" cy="344.5" rx="3.43" ry="4.68"/>
			
				<ellipse transform="matrix(0.1449 -0.9895 0.9895 0.1449 -212.5594 443.0516)" class="st12" cx="150.04" cy="344.5" rx="4.68" ry="3.43"/>
			
				<ellipse transform="matrix(0.2917 -0.9565 0.9565 0.2917 -224.9636 398.7234)" class="st12" cx="156.74" cy="351.26" rx="4.68" ry="3.43"/>
		</g>
	</g>
	<g>
		<path class="st12" d="M91.8,375.6h21.82c11.76,0,17.64,3.99,17.64,11.95c0,3.02-0.32,5.35-0.97,6.98s-1.98,3.17-4,4.61
			c2.35,1.01,3.97,2.25,4.86,3.71c0.89,1.46,1.33,3.9,1.33,7.31c0,9.12-6.19,13.68-18.58,13.68H91.8V375.6z M112.18,386.62h-3.67
			v7.7h3.74c1.44,0,2.45-0.31,3.02-0.94c0.58-0.62,0.86-1.62,0.86-2.99c0-1.37-0.31-2.34-0.94-2.92
			C114.58,386.91,113.57,386.62,112.18,386.62z M112.39,404.76h-3.89v7.92h3.89c1.68,0,2.81-0.28,3.38-0.83
			c0.58-0.55,0.86-1.58,0.86-3.1s-0.31-2.56-0.94-3.13C115.08,405.05,113.98,404.76,112.39,404.76z"/>
		<path class="st12" d="M137.31,423.84V375.6h16.7v48.24H137.31z"/>
		<path class="st12" d="M160.13,423.84V375.6h24.84l3.74,18.43l3.1-18.43h25.56v48.24h-16.7V399h-0.79l-4.18,24.34h-13.97
			l-4.1-24.34h-0.79v24.84H160.13z"/>
		<path class="st12" d="M223.49,375.6h21.81c11.76,0,17.64,3.99,17.64,11.95c0,3.02-0.32,5.35-0.97,6.98
			c-0.65,1.63-1.98,3.17-3.99,4.61c2.35,1.01,3.97,2.25,4.86,3.71c0.89,1.46,1.33,3.9,1.33,7.31c0,9.12-6.19,13.68-18.58,13.68
			h-22.1V375.6z M243.86,386.62h-3.67v7.7h3.74c1.44,0,2.45-0.31,3.02-0.94c0.58-0.62,0.87-1.62,0.87-2.99
			c0-1.37-0.31-2.34-0.94-2.92C246.27,386.91,245.26,386.62,243.86,386.62z M244.08,404.76h-3.89v7.92h3.89
			c1.68,0,2.81-0.28,3.38-0.83c0.58-0.55,0.87-1.58,0.87-3.1s-0.31-2.56-0.94-3.13C246.77,405.05,245.67,404.76,244.08,404.76z"/>
		<path class="st12" d="M265.82,423.84l10.66-48.24h25.27l10.87,48.24h-16.85l-1.37-5.54h-11.02l-1.15,5.54H265.82z M288.29,388.71
			l-2.74,16.85h7.13l-2.59-16.85H288.29z"/>
	</g>
</g>
</svg>
