<?xml version="1.0" encoding="utf-8"?>
<!-- Generator: Adobe Illustrator 24.1.2, SVG Export Plug-In . SVG Version: 6.00 Build 0)  -->
<svg version="1.1" id="Layer_1" xmlns="http://www.w3.org/2000/svg" xmlns:xlink="http://www.w3.org/1999/xlink" x="0px" y="0px"
	 viewBox="0 0 368 340" style="enable-background:new 0 0 368 340;" xml:space="preserve">
<style type="text/css">
	.st0{fill-rule:evenodd;clip-rule:evenodd;fill:#45589A;}
	.st1{fill:#45589A;}
</style>
<path class="st0" d="M227.8,171.9c-23.8-27.7-66.8-27.3-90.1,0.8l-58,69.9c-32.1,38.6-4.3,97.1,45.9,96.7l8.3-0.1
	c11.4-7.4,29.4-12.2,49.7-12.2c19.5,0,36.9,4.4,48.3,11.3l10.9-0.1c50.2-0.4,77-59.4,44.2-97.5L227.8,171.9z"/>
<ellipse transform="matrix(0.2588 -0.9659 0.9659 0.2588 100.4418 413.7643)" class="st1" cx="319.8" cy="141.4" rx="56.5" ry="34.4"/>
<ellipse class="st1" cx="227.4" cy="56.5" rx="34.4" ry="56.5"/>
<ellipse class="st1" cx="130.4" cy="56.5" rx="34.4" ry="56.5"/>
<ellipse transform="matrix(0.9659 -0.2588 0.2588 0.9659 -34.9756 17.1999)" class="st1" cx="47.8" cy="141.4" rx="34.4" ry="56.5"/>
</svg>
