<?xml version="1.0" encoding="utf-8"?>
<!-- Generator: Adobe Illustrator 24.1.2, SVG Export Plug-In . SVG Version: 6.00 Build 0)  -->
<svg version="1.1" id="Layer_1" xmlns="http://www.w3.org/2000/svg" xmlns:xlink="http://www.w3.org/1999/xlink" x="0px" y="0px"
	 viewBox="0 0 368 340" style="enable-background:new 0 0 368 340;" xml:space="preserve">
<style type="text/css">
	.st0{fill-rule:evenodd;clip-rule:evenodd;fill:#45589A;}
	.st1{fill:#45589A;}
</style>
<g>
	<path class="st0" d="M181.5,213.7c27.7-23.8,27.3-66.8-0.8-90.1l-69.9-58c-38.6-32.1-97.1-4.3-96.7,45.9l0.1,8.3
		c7.4,11.4,12.2,29.4,12.2,49.7c0,19.5-4.4,36.9-11.3,48.3l0.1,10.9c0.4,50.2,59.4,77,97.5,44.2L181.5,213.7z"/>
	
		<ellipse transform="matrix(0.2588 -0.9659 0.9659 0.2588 -138.1217 431.2961)" class="st1" cx="212" cy="305.6" rx="34.4" ry="56.5"/>
	<ellipse class="st1" cx="296.9" cy="213.3" rx="56.5" ry="34.4"/>
	<ellipse class="st1" cx="296.9" cy="116.3" rx="56.5" ry="34.4"/>
	<ellipse transform="matrix(0.9659 -0.2588 0.2588 0.9659 -1.4856 56.0216)" class="st1" cx="212" cy="33.7" rx="56.5" ry="34.4"/>
</g>
</svg>
