<svg width="275" height="273" viewBox="0 0 275 273" fill="none" xmlns="http://www.w3.org/2000/svg">
<path d="M86.4527 94.5474C84.3377 91.1193 86.1345 86.6223 90.0293 85.5954L123.737 76.7077C125.923 76.1314 128.246 76.8322 129.749 78.5205L252.228 216.144C255.652 219.991 252.957 226.081 247.807 226.132L171.514 226.898C169.412 226.919 167.451 225.838 166.347 224.049L86.4527 94.5474Z" fill="#45589A"/>
<path d="M76.6433 40.017C88.6008 31.7339 105.028 34.872 113.09 46.9795L128.313 69.8415L143.121 95.9464L175.468 134.517L104.428 99.7327L24.4595 72.1558C18.6571 70.1549 19.2465 61.7638 25.2716 60.5937L55.3797 54.7465L76.6433 40.017Z" fill="#45589A"/>
<path d="M102.522 84.278L113.574 85.0228L107.891 169.361L103.978 227.43C103.83 229.634 101.922 231.3 99.7182 231.152L89.1319 230.438C86.9278 230.29 85.2614 228.383 85.4099 226.179L85.689 222.037C85.9489 218.179 89.2866 215.263 93.1438 215.523L93.6753 215.559L102.522 84.278Z" fill="#45589A"/>
<path d="M120.979 109.092L132.032 109.836L127.458 177.718L124.361 223.678C124.212 225.882 122.305 227.549 120.101 227.4L109.515 226.687C107.311 226.538 105.644 224.631 105.793 222.427L105.873 221.234C106.133 217.377 109.471 214.461 113.328 214.721L113.859 214.757L120.979 109.092Z" fill="#45589A"/>
<path d="M253.831 220.689L253.877 224.767C253.921 228.633 250.822 231.801 246.956 231.845L185.924 232.53L139.863 233.047C137.654 233.072 135.843 231.301 135.819 229.092L135.699 218.483C135.675 216.274 137.445 214.463 139.654 214.438L140.849 214.425C144.715 214.381 147.884 217.48 147.927 221.346L147.933 221.878L253.831 220.689Z" fill="#45589A"/>
<path d="M266.754 171.242L266.802 173.501C266.973 181.406 265.58 189.268 262.702 196.633L253.032 221.382L239.41 222.129L235.635 221.02L229.22 214.293C245.005 205.845 257.495 192.342 264.689 175.947L266.754 171.242Z" fill="#45589A"/>
<rect x="130.213" y="73.2321" width="12.4068" height="48.5206" transform="rotate(57.7712 130.213 73.2321)" fill="#161414"/>
<path d="M117.171 9.08454L111.405 53.091L88.276 42.7725L117.171 9.08454Z" fill="#45589A"/>
</svg>
